<mxfile host="app.diagrams.net" modified="2021-04-20T01:22:20.249Z" agent="5.0 (Windows NT 10.0; Win64; x64) AppleWebKit/537.36 (KHTML, like Gecko) Chrome/89.0.4389.114 Safari/537.36 OPR/75.0.3969.171" etag="nlE7acDKH99rd5VhchFp" version="14.6.3" type="github">
  <diagram id="GGirwTekXRImOjxvT9fF" name="Page-1">
    <mxGraphModel dx="828" dy="452" grid="1" gridSize="10" guides="1" tooltips="1" connect="1" arrows="1" fold="1" page="1" pageScale="1" pageWidth="1169" pageHeight="827" math="0" shadow="0">
      <root>
        <mxCell id="0" />
        <mxCell id="1" parent="0" />
        <mxCell id="boWxEHNUgskN5GAm8cTc-1" value="&lt;font style=&quot;font-size: 19px&quot;&gt;DER | Empresa ACME&lt;br&gt;Guilherme Araújo BI22&lt;/font&gt;" style="text;html=1;align=center;verticalAlign=middle;resizable=0;points=[];autosize=1;fontFamily=Lucida Console;fontStyle=1;fontSize=12;" parent="1" vertex="1">
          <mxGeometry x="35" y="35" width="260" height="40" as="geometry" />
        </mxCell>
        <mxCell id="boWxEHNUgskN5GAm8cTc-43" value="&lt;font style=&quot;font-size: 12px&quot;&gt;Lotado&lt;/font&gt;" style="shape=rhombus;perimeter=rhombusPerimeter;whiteSpace=wrap;html=1;align=center;fontFamily=Lucida Console;fontSize=12;" parent="1" vertex="1">
          <mxGeometry x="255" y="330" width="120" height="60" as="geometry" />
        </mxCell>
        <mxCell id="boWxEHNUgskN5GAm8cTc-44" value="&lt;font style=&quot;font-size: 12px&quot;&gt;Departamento&lt;/font&gt;" style="whiteSpace=wrap;html=1;align=center;fontFamily=Lucida Console;fontSize=12;" parent="1" vertex="1">
          <mxGeometry x="465" y="340" width="100" height="40" as="geometry" />
        </mxCell>
        <mxCell id="boWxEHNUgskN5GAm8cTc-45" value="Diretoria" style="whiteSpace=wrap;html=1;align=center;fontFamily=Lucida Console;fontSize=12;" parent="1" vertex="1">
          <mxGeometry x="864.04" y="340" width="100" height="40" as="geometry" />
        </mxCell>
        <mxCell id="boWxEHNUgskN5GAm8cTc-46" value="" style="endArrow=none;html=1;rounded=0;fontFamily=Lucida Console;fontSize=12;exitX=1;exitY=0.5;exitDx=0;exitDy=0;" parent="1" source="I5Dhk4yvslrsnTu3Sv3g-1" target="boWxEHNUgskN5GAm8cTc-43" edge="1">
          <mxGeometry relative="1" as="geometry">
            <mxPoint x="165" y="360" as="sourcePoint" />
            <mxPoint x="275" y="450" as="targetPoint" />
          </mxGeometry>
        </mxCell>
        <mxCell id="boWxEHNUgskN5GAm8cTc-47" value="(1,1)" style="resizable=0;html=1;align=right;verticalAlign=bottom;fontFamily=Lucida Console;" parent="boWxEHNUgskN5GAm8cTc-46" connectable="0" vertex="1">
          <mxGeometry x="1" relative="1" as="geometry">
            <mxPoint x="-1" as="offset" />
          </mxGeometry>
        </mxCell>
        <mxCell id="boWxEHNUgskN5GAm8cTc-48" value="" style="endArrow=none;html=1;rounded=0;fontFamily=Lucida Console;fontSize=12;exitX=1;exitY=0.5;exitDx=0;exitDy=0;entryX=0;entryY=0.5;entryDx=0;entryDy=0;" parent="1" source="boWxEHNUgskN5GAm8cTc-43" target="boWxEHNUgskN5GAm8cTc-44" edge="1">
          <mxGeometry relative="1" as="geometry">
            <mxPoint x="305" y="360" as="sourcePoint" />
            <mxPoint x="355" y="359.5" as="targetPoint" />
          </mxGeometry>
        </mxCell>
        <mxCell id="boWxEHNUgskN5GAm8cTc-49" value="(1,n)" style="resizable=0;html=1;align=right;verticalAlign=bottom;fontFamily=Lucida Console;" parent="boWxEHNUgskN5GAm8cTc-48" connectable="0" vertex="1">
          <mxGeometry x="1" relative="1" as="geometry">
            <mxPoint x="-1" as="offset" />
          </mxGeometry>
        </mxCell>
        <mxCell id="boWxEHNUgskN5GAm8cTc-50" value="" style="endArrow=none;html=1;rounded=0;fontFamily=Lucida Console;fontSize=12;exitX=1;exitY=0.5;exitDx=0;exitDy=0;entryX=0;entryY=0.5;entryDx=0;entryDy=0;" parent="1" source="boWxEHNUgskN5GAm8cTc-44" target="boWxEHNUgskN5GAm8cTc-53" edge="1">
          <mxGeometry relative="1" as="geometry">
            <mxPoint x="465" y="359.5" as="sourcePoint" />
            <mxPoint x="525" y="359.5" as="targetPoint" />
          </mxGeometry>
        </mxCell>
        <mxCell id="boWxEHNUgskN5GAm8cTc-51" value="(1,1)" style="resizable=0;html=1;align=right;verticalAlign=bottom;fontFamily=Lucida Console;" parent="boWxEHNUgskN5GAm8cTc-50" connectable="0" vertex="1">
          <mxGeometry x="1" relative="1" as="geometry">
            <mxPoint x="-1" as="offset" />
          </mxGeometry>
        </mxCell>
        <mxCell id="boWxEHNUgskN5GAm8cTc-53" value="&lt;font style=&quot;font-size: 12px&quot;&gt;Dirigido&lt;/font&gt;" style="shape=rhombus;perimeter=rhombusPerimeter;whiteSpace=wrap;html=1;align=center;fontFamily=Lucida Console;fontSize=12;" parent="1" vertex="1">
          <mxGeometry x="655" y="330" width="120" height="60" as="geometry" />
        </mxCell>
        <mxCell id="boWxEHNUgskN5GAm8cTc-54" value="" style="endArrow=none;html=1;rounded=0;fontFamily=Lucida Console;fontSize=12;exitX=1;exitY=0.5;exitDx=0;exitDy=0;entryX=0;entryY=0.5;entryDx=0;entryDy=0;" parent="1" source="boWxEHNUgskN5GAm8cTc-53" target="boWxEHNUgskN5GAm8cTc-45" edge="1">
          <mxGeometry relative="1" as="geometry">
            <mxPoint x="784" y="360" as="sourcePoint" />
            <mxPoint x="824" y="419.97" as="targetPoint" />
          </mxGeometry>
        </mxCell>
        <mxCell id="boWxEHNUgskN5GAm8cTc-55" value="(1,n)" style="resizable=0;html=1;align=right;verticalAlign=bottom;fontFamily=Lucida Console;" parent="boWxEHNUgskN5GAm8cTc-54" connectable="0" vertex="1">
          <mxGeometry x="1" relative="1" as="geometry">
            <mxPoint x="-1" as="offset" />
          </mxGeometry>
        </mxCell>
        <mxCell id="boWxEHNUgskN5GAm8cTc-61" value="Código" style="ellipse;whiteSpace=wrap;html=1;align=center;fontFamily=Lucida Console;fontSize=12;" parent="1" vertex="1">
          <mxGeometry x="345" y="190" width="100" height="40" as="geometry" />
        </mxCell>
        <mxCell id="boWxEHNUgskN5GAm8cTc-62" value="Nome" style="ellipse;whiteSpace=wrap;html=1;align=center;fontFamily=Lucida Console;fontSize=12;" parent="1" vertex="1">
          <mxGeometry x="425" y="240" width="100" height="40" as="geometry" />
        </mxCell>
        <mxCell id="boWxEHNUgskN5GAm8cTc-63" value="Cód. Dependente" style="ellipse;whiteSpace=wrap;html=1;align=center;fontFamily=Lucida Console;fontSize=12;" parent="1" vertex="1">
          <mxGeometry x="230" y="240" width="100" height="40" as="geometry" />
        </mxCell>
        <mxCell id="boWxEHNUgskN5GAm8cTc-64" value="" style="endArrow=none;html=1;rounded=0;fontFamily=Lucida Console;fontSize=12;exitX=0.5;exitY=1;exitDx=0;exitDy=0;entryX=0;entryY=0;entryDx=0;entryDy=0;" parent="1" source="boWxEHNUgskN5GAm8cTc-61" target="boWxEHNUgskN5GAm8cTc-44" edge="1">
          <mxGeometry relative="1" as="geometry">
            <mxPoint x="195" y="420" as="sourcePoint" />
            <mxPoint x="355" y="420" as="targetPoint" />
          </mxGeometry>
        </mxCell>
        <mxCell id="boWxEHNUgskN5GAm8cTc-65" value="" style="endArrow=none;html=1;rounded=0;fontFamily=Lucida Console;fontSize=12;exitX=0.5;exitY=1;exitDx=0;exitDy=0;entryX=1;entryY=0;entryDx=0;entryDy=0;" parent="1" source="boWxEHNUgskN5GAm8cTc-63" target="I5Dhk4yvslrsnTu3Sv3g-1" edge="1">
          <mxGeometry relative="1" as="geometry">
            <mxPoint x="325.0000000000002" y="310" as="sourcePoint" />
            <mxPoint x="389.9999999999998" y="350" as="targetPoint" />
          </mxGeometry>
        </mxCell>
        <mxCell id="boWxEHNUgskN5GAm8cTc-66" value="" style="endArrow=none;html=1;rounded=0;fontFamily=Lucida Console;fontSize=12;exitX=0.5;exitY=1;exitDx=0;exitDy=0;entryX=0.25;entryY=0;entryDx=0;entryDy=0;" parent="1" source="boWxEHNUgskN5GAm8cTc-62" target="boWxEHNUgskN5GAm8cTc-44" edge="1">
          <mxGeometry relative="1" as="geometry">
            <mxPoint x="335.0000000000002" y="320" as="sourcePoint" />
            <mxPoint x="405" y="340" as="targetPoint" />
          </mxGeometry>
        </mxCell>
        <mxCell id="boWxEHNUgskN5GAm8cTc-69" value="" style="resizable=0;html=1;align=right;verticalAlign=bottom;fontFamily=Lucida Console;" parent="1" connectable="0" vertex="1">
          <mxGeometry x="315" y="460.01" as="geometry" />
        </mxCell>
        <mxCell id="boWxEHNUgskN5GAm8cTc-81" value="Código" style="ellipse;whiteSpace=wrap;html=1;align=center;fontFamily=Lucida Console;fontSize=12;" parent="1" vertex="1">
          <mxGeometry x="734" y="190.00000000000003" width="100" height="40" as="geometry" />
        </mxCell>
        <mxCell id="boWxEHNUgskN5GAm8cTc-82" value="&lt;span style=&quot;text-align: left&quot;&gt;Nome&lt;/span&gt;" style="ellipse;whiteSpace=wrap;html=1;align=center;fontFamily=Lucida Console;fontSize=12;" parent="1" vertex="1">
          <mxGeometry x="824.04" y="240" width="100" height="40" as="geometry" />
        </mxCell>
        <mxCell id="boWxEHNUgskN5GAm8cTc-87" value="" style="endArrow=none;html=1;rounded=0;fontFamily=Lucida Console;fontSize=12;exitX=0.5;exitY=0;exitDx=0;exitDy=0;entryX=0.5;entryY=1;entryDx=0;entryDy=0;" parent="1" source="boWxEHNUgskN5GAm8cTc-45" target="boWxEHNUgskN5GAm8cTc-82" edge="1">
          <mxGeometry relative="1" as="geometry">
            <mxPoint x="869" y="89.97000000000003" as="sourcePoint" />
            <mxPoint x="924" y="149.97000000000003" as="targetPoint" />
          </mxGeometry>
        </mxCell>
        <mxCell id="boWxEHNUgskN5GAm8cTc-89" value="" style="endArrow=none;html=1;rounded=0;fontFamily=Lucida Console;fontSize=12;exitX=0.5;exitY=1;exitDx=0;exitDy=0;entryX=0.25;entryY=0;entryDx=0;entryDy=0;" parent="1" source="boWxEHNUgskN5GAm8cTc-81" target="boWxEHNUgskN5GAm8cTc-45" edge="1">
          <mxGeometry relative="1" as="geometry">
            <mxPoint x="754" y="319.97" as="sourcePoint" />
            <mxPoint x="854.5" y="139.9699999999999" as="targetPoint" />
          </mxGeometry>
        </mxCell>
        <mxCell id="boWxEHNUgskN5GAm8cTc-90" value="&lt;span style=&quot;text-align: left&quot;&gt;Diretor&lt;/span&gt;" style="ellipse;whiteSpace=wrap;html=1;align=center;fontFamily=Lucida Console;fontSize=12;" parent="1" vertex="1">
          <mxGeometry x="904" y="190" width="100" height="40" as="geometry" />
        </mxCell>
        <mxCell id="boWxEHNUgskN5GAm8cTc-91" value="" style="endArrow=none;html=1;rounded=0;fontFamily=Lucida Console;fontSize=12;exitX=0.75;exitY=0;exitDx=0;exitDy=0;entryX=0.5;entryY=1;entryDx=0;entryDy=0;" parent="1" source="boWxEHNUgskN5GAm8cTc-45" target="boWxEHNUgskN5GAm8cTc-90" edge="1">
          <mxGeometry relative="1" as="geometry">
            <mxPoint x="914" y="299.97" as="sourcePoint" />
            <mxPoint x="961.5" y="99.96999999999991" as="targetPoint" />
          </mxGeometry>
        </mxCell>
        <mxCell id="I5Dhk4yvslrsnTu3Sv3g-1" value="&lt;font style=&quot;font-size: 12px&quot;&gt;Funcionário&lt;/font&gt;" style="whiteSpace=wrap;html=1;align=center;fontFamily=Lucida Console;fontSize=12;" parent="1" vertex="1">
          <mxGeometry x="70" y="340" width="100" height="40" as="geometry" />
        </mxCell>
        <mxCell id="I5Dhk4yvslrsnTu3Sv3g-6" value="Matrícula" style="ellipse;whiteSpace=wrap;html=1;align=center;fontFamily=Lucida Console;fontSize=12;" parent="1" vertex="1">
          <mxGeometry y="124.97" width="100" height="40" as="geometry" />
        </mxCell>
        <mxCell id="I5Dhk4yvslrsnTu3Sv3g-7" value="Nome" style="ellipse;whiteSpace=wrap;html=1;align=center;fontFamily=Lucida Console;fontSize=12;" parent="1" vertex="1">
          <mxGeometry x="60" y="174.97" width="100" height="40" as="geometry" />
        </mxCell>
        <mxCell id="I5Dhk4yvslrsnTu3Sv3g-8" value="Departamento" style="ellipse;whiteSpace=wrap;html=1;align=center;fontFamily=Lucida Console;fontSize=12;" parent="1" vertex="1">
          <mxGeometry x="190" y="174.97" width="100" height="40" as="geometry" />
        </mxCell>
        <mxCell id="I5Dhk4yvslrsnTu3Sv3g-9" value="" style="endArrow=none;html=1;rounded=0;fontFamily=Lucida Console;fontSize=12;exitX=0.5;exitY=1;exitDx=0;exitDy=0;entryX=0.09;entryY=0.025;entryDx=0;entryDy=0;entryPerimeter=0;" parent="1" source="I5Dhk4yvslrsnTu3Sv3g-6" target="I5Dhk4yvslrsnTu3Sv3g-1" edge="1">
          <mxGeometry relative="1" as="geometry">
            <mxPoint x="-150" y="354.97" as="sourcePoint" />
            <mxPoint x="10" y="354.97" as="targetPoint" />
          </mxGeometry>
        </mxCell>
        <mxCell id="I5Dhk4yvslrsnTu3Sv3g-10" value="" style="endArrow=none;html=1;rounded=0;fontFamily=Lucida Console;fontSize=12;exitX=0.5;exitY=1;exitDx=0;exitDy=0;entryX=0.75;entryY=0;entryDx=0;entryDy=0;" parent="1" source="I5Dhk4yvslrsnTu3Sv3g-8" target="I5Dhk4yvslrsnTu3Sv3g-1" edge="1">
          <mxGeometry relative="1" as="geometry">
            <mxPoint x="-19.999999999999773" y="244.97" as="sourcePoint" />
            <mxPoint x="44.99999999999977" y="284.97" as="targetPoint" />
          </mxGeometry>
        </mxCell>
        <mxCell id="I5Dhk4yvslrsnTu3Sv3g-11" value="" style="endArrow=none;html=1;rounded=0;fontFamily=Lucida Console;fontSize=12;exitX=0.5;exitY=1;exitDx=0;exitDy=0;entryX=0.25;entryY=0;entryDx=0;entryDy=0;" parent="1" source="I5Dhk4yvslrsnTu3Sv3g-7" target="I5Dhk4yvslrsnTu3Sv3g-1" edge="1">
          <mxGeometry relative="1" as="geometry">
            <mxPoint x="-9.999999999999773" y="254.97" as="sourcePoint" />
            <mxPoint x="60" y="274.97" as="targetPoint" />
          </mxGeometry>
        </mxCell>
        <mxCell id="I5Dhk4yvslrsnTu3Sv3g-12" value="CPF" style="ellipse;whiteSpace=wrap;html=1;align=center;fontFamily=Lucida Console;fontSize=12;" parent="1" vertex="1">
          <mxGeometry x="140" y="124.97" width="100" height="40" as="geometry" />
        </mxCell>
        <mxCell id="I5Dhk4yvslrsnTu3Sv3g-13" value="" style="endArrow=none;html=1;rounded=0;fontFamily=Lucida Console;fontSize=12;exitX=0.5;exitY=0;exitDx=0;exitDy=0;entryX=0.5;entryY=1;entryDx=0;entryDy=0;" parent="1" source="I5Dhk4yvslrsnTu3Sv3g-1" target="I5Dhk4yvslrsnTu3Sv3g-12" edge="1">
          <mxGeometry relative="1" as="geometry">
            <mxPoint x="80" y="224.97" as="sourcePoint" />
            <mxPoint x="240" y="224.97" as="targetPoint" />
          </mxGeometry>
        </mxCell>
        <mxCell id="I5Dhk4yvslrsnTu3Sv3g-14" value="&lt;font style=&quot;font-size: 12px&quot;&gt;Possui&lt;/font&gt;" style="shape=rhombus;perimeter=rhombusPerimeter;whiteSpace=wrap;html=1;align=center;fontFamily=Lucida Console;fontSize=12;" parent="1" vertex="1">
          <mxGeometry x="60" y="430.01" width="120" height="60" as="geometry" />
        </mxCell>
        <mxCell id="I5Dhk4yvslrsnTu3Sv3g-15" value="1" style="resizable=0;html=1;align=right;verticalAlign=bottom;fontFamily=Lucida Console;" parent="1" connectable="0" vertex="1">
          <mxGeometry x="109.99662179699435" y="400.0033108984972" as="geometry" />
        </mxCell>
        <mxCell id="I5Dhk4yvslrsnTu3Sv3g-16" value="" style="endArrow=none;html=1;rounded=0;fontFamily=Lucida Console;fontSize=12;exitX=0.5;exitY=1;exitDx=0;exitDy=0;entryX=0.5;entryY=0;entryDx=0;entryDy=0;" parent="1" source="I5Dhk4yvslrsnTu3Sv3g-1" target="I5Dhk4yvslrsnTu3Sv3g-14" edge="1">
          <mxGeometry relative="1" as="geometry">
            <mxPoint x="170" y="400" as="sourcePoint" />
            <mxPoint x="459.03999999999996" y="520" as="targetPoint" />
          </mxGeometry>
        </mxCell>
        <mxCell id="I5Dhk4yvslrsnTu3Sv3g-18" value="" style="endArrow=none;html=1;rounded=0;fontFamily=Lucida Console;fontSize=12;exitX=0.5;exitY=1;exitDx=0;exitDy=0;entryX=0.5;entryY=0;entryDx=0;entryDy=0;" parent="1" source="I5Dhk4yvslrsnTu3Sv3g-14" target="I5Dhk4yvslrsnTu3Sv3g-22" edge="1">
          <mxGeometry relative="1" as="geometry">
            <mxPoint x="119.5" y="510" as="sourcePoint" />
            <mxPoint x="119.5" y="580" as="targetPoint" />
          </mxGeometry>
        </mxCell>
        <mxCell id="I5Dhk4yvslrsnTu3Sv3g-19" value="N" style="resizable=0;html=1;align=right;verticalAlign=bottom;fontFamily=Lucida Console;" parent="I5Dhk4yvslrsnTu3Sv3g-18" connectable="0" vertex="1">
          <mxGeometry x="1" relative="1" as="geometry">
            <mxPoint x="-5" as="offset" />
          </mxGeometry>
        </mxCell>
        <mxCell id="I5Dhk4yvslrsnTu3Sv3g-22" value="&lt;font style=&quot;font-size: 12px&quot;&gt;Dependentes&lt;/font&gt;" style="whiteSpace=wrap;html=1;align=center;fontFamily=Lucida Console;fontSize=12;" parent="1" vertex="1">
          <mxGeometry x="70" y="530" width="100" height="40" as="geometry" />
        </mxCell>
        <mxCell id="I5Dhk4yvslrsnTu3Sv3g-23" value="Matrícula Funcionário Responsável" style="ellipse;whiteSpace=wrap;html=1;align=center;fontFamily=Lucida Console;fontSize=12;" parent="1" vertex="1">
          <mxGeometry x="240" y="640" width="100" height="40" as="geometry" />
        </mxCell>
        <mxCell id="I5Dhk4yvslrsnTu3Sv3g-24" value="Nome" style="ellipse;whiteSpace=wrap;html=1;align=center;fontFamily=Lucida Console;fontSize=12;" parent="1" vertex="1">
          <mxGeometry x="10" y="640" width="100" height="40" as="geometry" />
        </mxCell>
        <mxCell id="I5Dhk4yvslrsnTu3Sv3g-25" value="" style="endArrow=none;html=1;rounded=0;fontFamily=Lucida Console;fontSize=12;exitX=0.5;exitY=0;exitDx=0;exitDy=0;entryX=1;entryY=1;entryDx=0;entryDy=0;" parent="1" source="I5Dhk4yvslrsnTu3Sv3g-23" target="I5Dhk4yvslrsnTu3Sv3g-22" edge="1">
          <mxGeometry relative="1" as="geometry">
            <mxPoint x="20" y="760" as="sourcePoint" />
            <mxPoint x="180" y="760" as="targetPoint" />
          </mxGeometry>
        </mxCell>
        <mxCell id="I5Dhk4yvslrsnTu3Sv3g-26" value="" style="endArrow=none;html=1;rounded=0;fontFamily=Lucida Console;fontSize=12;exitX=0.5;exitY=0;exitDx=0;exitDy=0;entryX=0;entryY=1;entryDx=0;entryDy=0;" parent="1" source="I5Dhk4yvslrsnTu3Sv3g-24" target="I5Dhk4yvslrsnTu3Sv3g-22" edge="1">
          <mxGeometry relative="1" as="geometry">
            <mxPoint x="160.00000000000023" y="660" as="sourcePoint" />
            <mxPoint x="230" y="680" as="targetPoint" />
          </mxGeometry>
        </mxCell>
        <mxCell id="I5Dhk4yvslrsnTu3Sv3g-28" value="Assumindo que um dependente deve responder àpenas 1 funcionário" style="text;html=1;strokeColor=none;fillColor=none;align=center;verticalAlign=middle;whiteSpace=wrap;rounded=0;" parent="1" vertex="1">
          <mxGeometry x="180" y="550" width="120" height="20" as="geometry" />
        </mxCell>
        <mxCell id="I5Dhk4yvslrsnTu3Sv3g-30" value="CPF" style="ellipse;whiteSpace=wrap;html=1;align=center;fontFamily=Lucida Console;fontSize=12;" parent="1" vertex="1">
          <mxGeometry x="130" y="640" width="100" height="40" as="geometry" />
        </mxCell>
        <mxCell id="I5Dhk4yvslrsnTu3Sv3g-31" value="" style="endArrow=none;html=1;rounded=0;fontFamily=Lucida Console;fontSize=12;exitX=0.5;exitY=1;exitDx=0;exitDy=0;entryX=0.5;entryY=0;entryDx=0;entryDy=0;" parent="1" source="I5Dhk4yvslrsnTu3Sv3g-22" target="I5Dhk4yvslrsnTu3Sv3g-30" edge="1">
          <mxGeometry relative="1" as="geometry">
            <mxPoint x="110" y="855.03" as="sourcePoint" />
            <mxPoint x="230" y="740" as="targetPoint" />
          </mxGeometry>
        </mxCell>
        <mxCell id="I5Dhk4yvslrsnTu3Sv3g-32" value="Código Dependente" style="ellipse;whiteSpace=wrap;html=1;align=center;fontFamily=Lucida Console;fontSize=12;" parent="1" vertex="1">
          <mxGeometry x="80" y="710" width="100" height="40" as="geometry" />
        </mxCell>
        <mxCell id="I5Dhk4yvslrsnTu3Sv3g-33" value="" style="endArrow=none;html=1;rounded=0;fontFamily=Lucida Console;fontSize=12;exitX=0.5;exitY=0;exitDx=0;exitDy=0;entryX=0.25;entryY=1;entryDx=0;entryDy=0;" parent="1" source="I5Dhk4yvslrsnTu3Sv3g-32" target="I5Dhk4yvslrsnTu3Sv3g-22" edge="1">
          <mxGeometry relative="1" as="geometry">
            <mxPoint x="210.00000000000023" y="720" as="sourcePoint" />
            <mxPoint x="156.66666666666663" y="630" as="targetPoint" />
          </mxGeometry>
        </mxCell>
        <mxCell id="I5Dhk4yvslrsnTu3Sv3g-34" value="Gerente" style="ellipse;whiteSpace=wrap;html=1;align=center;fontFamily=Lucida Console;fontSize=12;" parent="1" vertex="1">
          <mxGeometry x="525" y="190" width="100" height="40" as="geometry" />
        </mxCell>
        <mxCell id="I5Dhk4yvslrsnTu3Sv3g-35" value="" style="endArrow=none;html=1;rounded=0;fontFamily=Lucida Console;fontSize=12;exitX=0.5;exitY=1;exitDx=0;exitDy=0;entryX=0.75;entryY=0;entryDx=0;entryDy=0;" parent="1" source="I5Dhk4yvslrsnTu3Sv3g-34" target="boWxEHNUgskN5GAm8cTc-44" edge="1">
          <mxGeometry relative="1" as="geometry">
            <mxPoint x="435.0000000000002" y="270" as="sourcePoint" />
            <mxPoint x="555" y="340" as="targetPoint" />
            <Array as="points">
              <mxPoint x="560" y="280" />
            </Array>
          </mxGeometry>
        </mxCell>
      </root>
    </mxGraphModel>
  </diagram>
</mxfile>
